<mxfile host="app.diagrams.net" modified="2022-09-15T03:22:33.996Z" agent="5.0 (Windows NT 10.0; Win64; x64) AppleWebKit/537.36 (KHTML, like Gecko) Chrome/104.0.5112.124 Safari/537.36" etag="7qAac2ipMLNvwHtlA_1j" version="20.3.0" type="github">
  <diagram id="_uPl2yU7P28XELWhbZbN" name="Page-1">
    <mxGraphModel dx="1469" dy="775" grid="1" gridSize="10" guides="1" tooltips="1" connect="1" arrows="1" fold="1" page="1" pageScale="1" pageWidth="850" pageHeight="1100" math="0" shadow="0">
      <root>
        <mxCell id="0" />
        <mxCell id="1" parent="0" />
        <mxCell id="TSvJP4gNYOcOvG6hQVce-1" value="WINS Backend - TWF Job" style="swimlane;" vertex="1" parent="1">
          <mxGeometry x="25" y="40" width="600" height="850" as="geometry" />
        </mxCell>
        <mxCell id="TSvJP4gNYOcOvG6hQVce-43" value="Calculation of TWF" style="rounded=0;whiteSpace=wrap;html=1;shadow=1;" vertex="1" parent="TSvJP4gNYOcOvG6hQVce-1">
          <mxGeometry x="190" y="370" width="330" height="200" as="geometry" />
        </mxCell>
        <mxCell id="TSvJP4gNYOcOvG6hQVce-12" value="" style="edgeStyle=orthogonalEdgeStyle;rounded=0;orthogonalLoop=1;jettySize=auto;html=1;" edge="1" parent="TSvJP4gNYOcOvG6hQVce-1" source="TSvJP4gNYOcOvG6hQVce-2" target="TSvJP4gNYOcOvG6hQVce-3">
          <mxGeometry relative="1" as="geometry" />
        </mxCell>
        <mxCell id="TSvJP4gNYOcOvG6hQVce-2" value="Start" style="strokeWidth=2;html=1;shape=mxgraph.flowchart.start_1;whiteSpace=wrap;fillColor=#d5e8d4;strokeColor=#82b366;" vertex="1" parent="TSvJP4gNYOcOvG6hQVce-1">
          <mxGeometry x="40" y="50" width="100" height="60" as="geometry" />
        </mxCell>
        <mxCell id="TSvJP4gNYOcOvG6hQVce-14" value="" style="edgeStyle=orthogonalEdgeStyle;rounded=0;orthogonalLoop=1;jettySize=auto;html=1;" edge="1" parent="TSvJP4gNYOcOvG6hQVce-1" source="TSvJP4gNYOcOvG6hQVce-3" target="TSvJP4gNYOcOvG6hQVce-5">
          <mxGeometry relative="1" as="geometry" />
        </mxCell>
        <mxCell id="TSvJP4gNYOcOvG6hQVce-3" value="TWF Job" style="rounded=0;whiteSpace=wrap;html=1;fillColor=#f8cecc;strokeColor=#b85450;" vertex="1" parent="TSvJP4gNYOcOvG6hQVce-1">
          <mxGeometry x="30" y="150" width="120" height="60" as="geometry" />
        </mxCell>
        <mxCell id="TSvJP4gNYOcOvG6hQVce-9" value="No" style="edgeStyle=orthogonalEdgeStyle;rounded=0;orthogonalLoop=1;jettySize=auto;html=1;" edge="1" parent="TSvJP4gNYOcOvG6hQVce-1" source="TSvJP4gNYOcOvG6hQVce-5" target="TSvJP4gNYOcOvG6hQVce-6">
          <mxGeometry relative="1" as="geometry" />
        </mxCell>
        <mxCell id="TSvJP4gNYOcOvG6hQVce-17" value="Yes" style="edgeStyle=orthogonalEdgeStyle;rounded=0;orthogonalLoop=1;jettySize=auto;html=1;exitX=0.5;exitY=1;exitDx=0;exitDy=0;entryX=0;entryY=0.5;entryDx=0;entryDy=0;" edge="1" parent="TSvJP4gNYOcOvG6hQVce-1" source="TSvJP4gNYOcOvG6hQVce-5" target="TSvJP4gNYOcOvG6hQVce-15">
          <mxGeometry relative="1" as="geometry" />
        </mxCell>
        <mxCell id="TSvJP4gNYOcOvG6hQVce-5" value="Quarterly?" style="rhombus;whiteSpace=wrap;html=1;fillColor=#fff2cc;strokeColor=#d6b656;" vertex="1" parent="TSvJP4gNYOcOvG6hQVce-1">
          <mxGeometry x="50" y="250" width="80" height="80" as="geometry" />
        </mxCell>
        <mxCell id="TSvJP4gNYOcOvG6hQVce-10" value="Historical" style="edgeStyle=orthogonalEdgeStyle;rounded=0;orthogonalLoop=1;jettySize=auto;html=1;" edge="1" parent="TSvJP4gNYOcOvG6hQVce-1" source="TSvJP4gNYOcOvG6hQVce-6" target="TSvJP4gNYOcOvG6hQVce-7">
          <mxGeometry relative="1" as="geometry" />
        </mxCell>
        <mxCell id="TSvJP4gNYOcOvG6hQVce-11" value="Real Time" style="edgeStyle=orthogonalEdgeStyle;rounded=0;orthogonalLoop=1;jettySize=auto;html=1;exitX=0.5;exitY=0;exitDx=0;exitDy=0;entryX=0;entryY=0.5;entryDx=0;entryDy=0;" edge="1" parent="TSvJP4gNYOcOvG6hQVce-1" source="TSvJP4gNYOcOvG6hQVce-6" target="TSvJP4gNYOcOvG6hQVce-8">
          <mxGeometry relative="1" as="geometry" />
        </mxCell>
        <mxCell id="TSvJP4gNYOcOvG6hQVce-16" value="Ad Hoc" style="edgeStyle=orthogonalEdgeStyle;rounded=0;orthogonalLoop=1;jettySize=auto;html=1;" edge="1" parent="TSvJP4gNYOcOvG6hQVce-1" source="TSvJP4gNYOcOvG6hQVce-6" target="TSvJP4gNYOcOvG6hQVce-15">
          <mxGeometry relative="1" as="geometry" />
        </mxCell>
        <mxCell id="TSvJP4gNYOcOvG6hQVce-6" value="Mode" style="rhombus;whiteSpace=wrap;html=1;fillColor=#fff2cc;strokeColor=#d6b656;" vertex="1" parent="TSvJP4gNYOcOvG6hQVce-1">
          <mxGeometry x="220" y="250" width="80" height="80" as="geometry" />
        </mxCell>
        <mxCell id="TSvJP4gNYOcOvG6hQVce-7" value="Get Historical Effective TWF from TWF_Summary" style="shape=process;whiteSpace=wrap;html=1;backgroundOutline=1;fillColor=#dae8fc;strokeColor=#6c8ebf;" vertex="1" parent="TSvJP4gNYOcOvG6hQVce-1">
          <mxGeometry x="380" y="260" width="120" height="60" as="geometry" />
        </mxCell>
        <mxCell id="TSvJP4gNYOcOvG6hQVce-8" value="Calculate Real Time TWF" style="shape=process;whiteSpace=wrap;html=1;backgroundOutline=1;fillColor=#dae8fc;strokeColor=#6c8ebf;" vertex="1" parent="TSvJP4gNYOcOvG6hQVce-1">
          <mxGeometry x="380" y="150" width="120" height="60" as="geometry" />
        </mxCell>
        <mxCell id="TSvJP4gNYOcOvG6hQVce-38" value="" style="edgeStyle=orthogonalEdgeStyle;rounded=0;orthogonalLoop=1;jettySize=auto;html=1;" edge="1" parent="TSvJP4gNYOcOvG6hQVce-1" source="TSvJP4gNYOcOvG6hQVce-15" target="TSvJP4gNYOcOvG6hQVce-35">
          <mxGeometry relative="1" as="geometry" />
        </mxCell>
        <mxCell id="TSvJP4gNYOcOvG6hQVce-15" value="Insert into TWF_Temp" style="shape=datastore;whiteSpace=wrap;html=1;fillColor=#e1d5e7;strokeColor=#9673a6;" vertex="1" parent="TSvJP4gNYOcOvG6hQVce-1">
          <mxGeometry x="210" y="380" width="100" height="60" as="geometry" />
        </mxCell>
        <mxCell id="TSvJP4gNYOcOvG6hQVce-41" value="" style="edgeStyle=orthogonalEdgeStyle;rounded=0;orthogonalLoop=1;jettySize=auto;html=1;" edge="1" parent="TSvJP4gNYOcOvG6hQVce-1" source="TSvJP4gNYOcOvG6hQVce-35" target="TSvJP4gNYOcOvG6hQVce-37">
          <mxGeometry relative="1" as="geometry" />
        </mxCell>
        <mxCell id="TSvJP4gNYOcOvG6hQVce-35" value="Insert into TWF_Detail" style="shape=datastore;whiteSpace=wrap;html=1;fillColor=#e1d5e7;strokeColor=#9673a6;" vertex="1" parent="TSvJP4gNYOcOvG6hQVce-1">
          <mxGeometry x="390" y="380" width="100" height="60" as="geometry" />
        </mxCell>
        <mxCell id="TSvJP4gNYOcOvG6hQVce-45" value="" style="edgeStyle=orthogonalEdgeStyle;rounded=0;orthogonalLoop=1;jettySize=auto;html=1;" edge="1" parent="TSvJP4gNYOcOvG6hQVce-1" source="TSvJP4gNYOcOvG6hQVce-36" target="TSvJP4gNYOcOvG6hQVce-44">
          <mxGeometry relative="1" as="geometry" />
        </mxCell>
        <mxCell id="TSvJP4gNYOcOvG6hQVce-36" value="Purge TWF_Temp" style="shape=datastore;whiteSpace=wrap;html=1;fillColor=#e1d5e7;strokeColor=#9673a6;" vertex="1" parent="TSvJP4gNYOcOvG6hQVce-1">
          <mxGeometry x="210" y="490" width="100" height="60" as="geometry" />
        </mxCell>
        <mxCell id="TSvJP4gNYOcOvG6hQVce-42" value="" style="edgeStyle=orthogonalEdgeStyle;rounded=0;orthogonalLoop=1;jettySize=auto;html=1;" edge="1" parent="TSvJP4gNYOcOvG6hQVce-1" source="TSvJP4gNYOcOvG6hQVce-37" target="TSvJP4gNYOcOvG6hQVce-36">
          <mxGeometry relative="1" as="geometry" />
        </mxCell>
        <mxCell id="TSvJP4gNYOcOvG6hQVce-37" value="Insert into TWF_Summary" style="shape=datastore;whiteSpace=wrap;html=1;fillColor=#e1d5e7;strokeColor=#9673a6;" vertex="1" parent="TSvJP4gNYOcOvG6hQVce-1">
          <mxGeometry x="390" y="490" width="100" height="60" as="geometry" />
        </mxCell>
        <mxCell id="TSvJP4gNYOcOvG6hQVce-48" value="No (ad hoc)" style="edgeStyle=orthogonalEdgeStyle;rounded=0;orthogonalLoop=1;jettySize=auto;html=1;" edge="1" parent="TSvJP4gNYOcOvG6hQVce-1" source="TSvJP4gNYOcOvG6hQVce-44" target="TSvJP4gNYOcOvG6hQVce-47">
          <mxGeometry relative="1" as="geometry" />
        </mxCell>
        <mxCell id="TSvJP4gNYOcOvG6hQVce-50" value="Yes" style="edgeStyle=orthogonalEdgeStyle;rounded=0;orthogonalLoop=1;jettySize=auto;html=1;" edge="1" parent="TSvJP4gNYOcOvG6hQVce-1" source="TSvJP4gNYOcOvG6hQVce-44" target="TSvJP4gNYOcOvG6hQVce-46">
          <mxGeometry relative="1" as="geometry" />
        </mxCell>
        <mxCell id="TSvJP4gNYOcOvG6hQVce-44" value="Quarterly?" style="rhombus;whiteSpace=wrap;html=1;shadow=0;fillColor=#fff2cc;strokeColor=#d6b656;" vertex="1" parent="TSvJP4gNYOcOvG6hQVce-1">
          <mxGeometry x="220" y="620" width="80" height="80" as="geometry" />
        </mxCell>
        <mxCell id="TSvJP4gNYOcOvG6hQVce-46" value="End" style="strokeWidth=2;html=1;shape=mxgraph.flowchart.start_1;whiteSpace=wrap;shadow=0;fillColor=#d5e8d4;strokeColor=#82b366;" vertex="1" parent="TSvJP4gNYOcOvG6hQVce-1">
          <mxGeometry x="210" y="750" width="100" height="60" as="geometry" />
        </mxCell>
        <mxCell id="TSvJP4gNYOcOvG6hQVce-47" value="Generate Response" style="shape=process;whiteSpace=wrap;html=1;backgroundOutline=1;fillColor=#dae8fc;strokeColor=#6c8ebf;" vertex="1" parent="TSvJP4gNYOcOvG6hQVce-1">
          <mxGeometry x="380" y="630" width="120" height="60" as="geometry" />
        </mxCell>
        <mxCell id="TSvJP4gNYOcOvG6hQVce-51" value="WINS Frontend &amp; Others" style="swimlane;shadow=0;" vertex="1" parent="1">
          <mxGeometry x="625" y="40" width="200" height="850" as="geometry" />
        </mxCell>
        <mxCell id="TSvJP4gNYOcOvG6hQVce-52" value="Call API to get real time TWF" style="rounded=0;whiteSpace=wrap;html=1;shadow=0;fillColor=#f8cecc;strokeColor=#b85450;" vertex="1" parent="TSvJP4gNYOcOvG6hQVce-51">
          <mxGeometry x="40" y="150" width="120" height="60" as="geometry" />
        </mxCell>
        <mxCell id="TSvJP4gNYOcOvG6hQVce-55" value="Call API to get historical effective TWF" style="rounded=0;whiteSpace=wrap;html=1;shadow=0;fillColor=#f8cecc;strokeColor=#b85450;" vertex="1" parent="TSvJP4gNYOcOvG6hQVce-51">
          <mxGeometry x="40" y="260" width="120" height="60" as="geometry" />
        </mxCell>
        <mxCell id="TSvJP4gNYOcOvG6hQVce-57" value="Call API to ad hoc run TWF job" style="rounded=0;whiteSpace=wrap;html=1;shadow=0;fillColor=#f8cecc;strokeColor=#b85450;" vertex="1" parent="TSvJP4gNYOcOvG6hQVce-51">
          <mxGeometry x="40" y="630" width="120" height="60" as="geometry" />
        </mxCell>
        <mxCell id="TSvJP4gNYOcOvG6hQVce-54" style="edgeStyle=orthogonalEdgeStyle;rounded=0;orthogonalLoop=1;jettySize=auto;html=1;exitX=1;exitY=0.5;exitDx=0;exitDy=0;entryX=0;entryY=0.5;entryDx=0;entryDy=0;" edge="1" parent="1" source="TSvJP4gNYOcOvG6hQVce-8" target="TSvJP4gNYOcOvG6hQVce-52">
          <mxGeometry relative="1" as="geometry" />
        </mxCell>
        <mxCell id="TSvJP4gNYOcOvG6hQVce-56" style="edgeStyle=orthogonalEdgeStyle;rounded=0;orthogonalLoop=1;jettySize=auto;html=1;exitX=1;exitY=0.5;exitDx=0;exitDy=0;entryX=0;entryY=0.5;entryDx=0;entryDy=0;" edge="1" parent="1" source="TSvJP4gNYOcOvG6hQVce-7" target="TSvJP4gNYOcOvG6hQVce-55">
          <mxGeometry relative="1" as="geometry" />
        </mxCell>
        <mxCell id="TSvJP4gNYOcOvG6hQVce-58" style="edgeStyle=orthogonalEdgeStyle;rounded=0;orthogonalLoop=1;jettySize=auto;html=1;exitX=1;exitY=0.5;exitDx=0;exitDy=0;entryX=0;entryY=0.5;entryDx=0;entryDy=0;" edge="1" parent="1" source="TSvJP4gNYOcOvG6hQVce-47" target="TSvJP4gNYOcOvG6hQVce-57">
          <mxGeometry relative="1" as="geometry" />
        </mxCell>
      </root>
    </mxGraphModel>
  </diagram>
</mxfile>
